<svg id="Layer_1" data-name="Layer 1" xmlns="http://www.w3.org/2000/svg" viewBox="0 0 21.34 21.34"><defs><style>.cls-1{opacity:0.7;}.cls-2{fill:none;stroke:#fff;stroke-miterlimit:10;stroke-width:1.5px;}.cls-3{fill:#fff;}</style></defs><title>Untitled-2</title><g class="cls-1"><rect class="cls-2" x="0.75" y="0.75" width="19.84" height="19.84" rx="9.92"/><path class="cls-3" d="M-23,19.57a2,2,0,0,0,.79-.35,2,2,0,0,0,.49-.54,2.11,2.11,0,0,0,.31-1.11,1.85,1.85,0,0,0-.27-1,1.54,1.54,0,0,0-.81-.61,1.53,1.53,0,0,0,.53-.4,1.51,1.51,0,0,0,.33-1A1.8,1.8,0,0,0-22,13.46a2.14,2.14,0,0,0-1.8-.74h-3.36v7H-24A4.34,4.34,0,0,0-23,19.57Zm-2.72-5.64h1.51a2.43,2.43,0,0,1,.82.11.61.61,0,0,1,.37.64.66.66,0,0,1-.28.61,1.45,1.45,0,0,1-.74.17h-1.68Zm0,4.53V16.61H-24a1.66,1.66,0,0,1,.7.12.74.74,0,0,1,.44.74.88.88,0,0,1-.45.87,1.71,1.71,0,0,1-.71.12Z" transform="translate(32.21 -5.61)"/><path class="cls-3" d="M-20.26,19.21a2.83,2.83,0,0,0,1.81.63,2.51,2.51,0,0,0,1.94-.75,1.63,1.63,0,0,0,.49-.93h-1.37a1.3,1.3,0,0,1-.27.36,1.18,1.18,0,0,1-.75.23,1.36,1.36,0,0,1-.74-.19,1.23,1.23,0,0,1-.54-1.08h3.74a5.79,5.79,0,0,0,0-1,2.52,2.52,0,0,0-.41-1.07,2.1,2.1,0,0,0-.89-.76,2.9,2.9,0,0,0-1.21-.24,2.45,2.45,0,0,0-1.83.72,2.76,2.76,0,0,0-.71,2A2.5,2.5,0,0,0-20.26,19.21Zm1-3.42a1.1,1.1,0,0,1,.81-.29,1.14,1.14,0,0,1,.79.28,1.07,1.07,0,0,1,.36.81h-2.31A1.37,1.37,0,0,1-19.3,15.79Z" transform="translate(32.21 -5.61)"/><rect class="cls-3" x="12.12" y="7.51" width="3.02" height="0.7"/></g></svg>