<svg width="17" height="17" viewBox="0 0 17 17" fill="none" xmlns="http://www.w3.org/2000/svg">
<path fill-rule="evenodd" clip-rule="evenodd" d="M12.3267 10.4216C12.3267 10.8024 12.3831 11.0737 12.496 11.2352C12.6089 11.3968 12.8008 11.4776 13.0717 11.4776C13.6813 11.4776 14.1638 11.1054 14.5194 10.361C14.875 9.61659 15.0528 8.59233 15.0528 7.28819C15.0528 6.28411 14.8863 5.41277 14.5533 4.67413C14.2203 3.9355 13.7631 3.32095 13.1818 2.83045C12.6004 2.33995 11.9203 1.97353 11.1414 1.73116C10.3625 1.4888 9.52723 1.36762 8.63546 1.36762C7.72111 1.36762 6.84346 1.52342 6.00249 1.83503C5.16152 2.14664 4.41933 2.60828 3.7759 3.21996C3.13247 3.83164 2.61886 4.58757 2.23506 5.48778C1.85126 6.38799 1.65936 7.43245 1.65936 8.62118C1.65936 9.75221 1.83433 10.7534 2.18426 11.6247C2.5342 12.4961 3.03087 13.229 3.6743 13.8233C4.31773 14.4177 5.09379 14.8649 6.00249 15.165C6.91119 15.465 7.9243 15.6151 9.04183 15.6151C9.79814 15.6151 10.4754 15.566 11.0737 15.4679C11.672 15.3698 12.3606 15.1881 13.1394 14.9226L13.4781 16.3422C12.6992 16.5961 11.9203 16.7692 11.1414 16.8615C10.3625 16.9538 9.6514 17 9.00797 17C7.55179 17 6.26213 16.8009 5.13894 16.4028C4.01576 16.0046 3.07321 15.442 2.31125 14.7149C1.5493 13.9878 0.973607 13.1078 0.584163 12.0748C0.194719 11.0419 0 9.89071 0 8.62118C0 7.34012 0.217295 6.17159 0.651892 5.11558C1.08649 4.05957 1.68758 3.15072 2.45518 2.389C3.22278 1.62729 4.13711 1.0387 5.19821 0.623218C6.2593 0.207737 7.41633 0 8.66932 0C9.96747 0 11.116 0.187541 12.115 0.562627C13.114 0.937714 13.9494 1.44552 14.621 2.08605C15.2927 2.72658 15.7978 3.47963 16.1365 4.34521C16.4751 5.2108 16.6444 6.13408 16.6444 7.11507C16.6444 7.94603 16.5767 8.71639 16.4412 9.42617C16.3058 10.136 16.0744 10.7534 15.747 11.2785C15.4197 11.8036 14.9851 12.2162 14.4432 12.5163C13.9014 12.8164 13.2298 12.9664 12.4283 12.9664C11.6946 12.9664 11.1047 12.8106 10.6589 12.499C10.213 12.1874 9.95617 11.7027 9.88845 11.0448C9.70783 11.7834 9.37766 12.2884 8.89791 12.5596C8.41816 12.8308 7.83964 12.9664 7.16235 12.9664C6.71082 12.9664 6.2847 12.877 5.88396 12.6981C5.48323 12.5192 5.13048 12.2509 4.8257 11.8931C4.52092 11.5353 4.27822 11.0881 4.09761 10.5514C3.917 10.0148 3.82669 9.3829 3.82669 8.6558C3.82669 7.94026 3.90853 7.29396 4.07221 6.7169C4.23589 6.13985 4.47576 5.64936 4.79183 5.24542C5.1079 4.84148 5.49734 4.52987 5.96016 4.31059C6.42298 4.09131 6.95352 3.98167 7.55179 3.98167C8.19522 3.98167 8.71447 4.09997 9.10956 4.33656C9.50465 4.57315 9.7925 4.89341 9.97311 5.29735L10.5827 4.1721H12.3267V10.4216ZM9.76992 7.61711C9.76992 7.04005 9.59778 6.61881 9.25349 6.35336C8.90919 6.08791 8.56209 5.95519 8.21215 5.95519C7.82835 5.95519 7.46149 6.13985 7.11155 6.50916C6.76162 6.87848 6.58665 7.53054 6.58665 8.46538C6.58665 9.21555 6.7334 9.78971 7.02689 10.1879C7.32039 10.5861 7.71547 10.7851 8.21215 10.7851C8.5508 10.7851 8.89508 10.6611 9.24502 10.4129C9.59496 10.1648 9.76992 9.72913 9.76992 9.10591V7.61711Z" fill="white"/>
</svg>
