<svg width="14" height="17" viewBox="0 0 14 17" fill="none" xmlns="http://www.w3.org/2000/svg">
<path fill-rule="evenodd" clip-rule="evenodd" d="M11.961 2.06061C10.6016 0.686861 8.95497 0 7.02102 0C5.08708 0 3.43344 0.686861 2.06006 2.06061C0.68668 3.43435 0 5.09427 0 7.0404C0 8.98654 0.68668 10.6465 2.06006 12.0202L7 17L11.961 12.0202C13.3203 10.6465 14 8.98654 14 7.0404C14 5.09427 13.3203 3.43435 11.961 2.06061ZM10.3096 7.21305C10.3096 9.04337 8.85647 10.5271 7.06397 10.5271C5.27147 10.5271 3.81836 9.04337 3.81836 7.21305C3.81836 5.38272 5.27147 3.89894 7.06397 3.89894C8.85647 3.89894 10.3096 5.38272 10.3096 7.21305Z" fill="white"/>
</svg>
