<svg width="16" height="16" viewBox="0 0 16 16" fill="none" xmlns="http://www.w3.org/2000/svg">
<path fill-rule="evenodd" clip-rule="evenodd" d="M6.48945 8.85094C5.76126 8.09688 5.1364 7.34159 4.61486 6.58506C4.09333 5.82853 3.99955 5.28304 4.33352 4.94858C4.82799 4.47108 5.18854 4.00644 5.41518 3.55465C5.64183 3.10286 5.33925 2.33497 4.50744 1.25096C3.66349 0.166738 2.93689 -0.155849 2.32764 0.283188C1.71839 0.722225 1.17283 1.16844 0.690933 1.62186C0.418976 1.88448 0.277645 2.32257 0.266936 2.93612C0.256226 3.54967 0.398619 4.26919 0.694119 5.0947C0.989618 5.9202 1.4478 6.82449 2.06869 7.80759C2.68958 8.79069 3.48945 9.78906 4.46833 10.8027C5.4472 11.8164 6.41709 12.6476 7.37803 13.2963C8.33897 13.945 9.22677 14.4315 10.0415 14.7556C10.8562 15.0797 11.5672 15.2471 12.1747 15.2577C12.7822 15.2683 13.228 15.1424 13.5121 14.88C13.9818 14.4264 14.4467 13.9028 14.9067 13.3092C15.3668 12.7157 15.0697 11.9783 14.0156 11.097C12.9613 10.2278 12.2044 9.89864 11.745 10.1094C11.2856 10.3201 10.8088 10.6582 10.3145 11.1235C9.96838 11.4578 9.42639 11.3511 8.68852 10.8035C7.95065 10.2558 7.21763 9.605 6.48945 8.85094Z" fill="white"/>
</svg>
