<svg xmlns="http://www.w3.org/2000/svg" viewBox="0 0 39.56 39.56"><defs><style>.cls-1{opacity:0.7;}.cls-2{fill:none;stroke:#fff;stroke-miterlimit:10;stroke-width:1.5px;}.cls-3{fill:#fff;}</style></defs><title>Asset 7</title><g id="Layer_2" data-name="Layer 2"><g id="Capa_1" data-name="Capa 1"><g class="cls-1"><path class="cls-2" d="M19.78,38.81h0a19,19,0,0,1-19-19h0a19,19,0,0,1,19-19h0a19,19,0,0,1,19,19h0A19,19,0,0,1,19.78,38.81Z"/><path class="cls-3" d="M13.69,21.55a.45.45,0,0,0,.65-.33c.06-.22.2-.8.27-1a.64.64,0,0,0-.19-.72,3.78,3.78,0,0,1-.86-2.55A6.15,6.15,0,0,1,20,10.69c3.49,0,5.41,2.13,5.41,5,0,3.74-1.66,6.9-4.12,6.9a2,2,0,0,1-2-2.5c.39-1.64,1.15-3.42,1.15-4.6a1.74,1.74,0,0,0-1.75-2c-1.39,0-2.51,1.43-2.51,3.36a4.93,4.93,0,0,0,.42,2.05L14.83,26a14.34,14.34,0,0,0,0,4.93.17.17,0,0,0,.31.07,13.92,13.92,0,0,0,2.34-4.25c.16-.57.91-3.56.91-3.56a3.72,3.72,0,0,0,3.17,1.61c4.18,0,7-3.8,7-8.89,0-3.85-3.26-7.44-8.22-7.44C14.14,8.48,11,12.9,11,16.59,11,18.82,11.88,20.81,13.69,21.55Z"/></g></g></g></svg>