<svg width="25" height="25" viewBox="0 0 25 25" fill="none" xmlns="http://www.w3.org/2000/svg">
<g opacity="0.7">
<path d="M1.50246 14.3746C1.66939 14.5415 1.86149 14.625 2.07851 14.625C2.29553 14.625 2.48763 14.5415 2.65456 14.3746L12.497 4.53202L22.3398 14.3746C22.5067 14.5415 22.6989 14.625 22.9155 14.625C23.1329 14.625 23.325 14.5415 23.4918 14.3746L24.7439 13.1223C24.9108 12.9554 24.9937 12.7632 24.9937 12.5466C24.9937 12.3295 24.9103 12.1374 24.7439 11.9705L13.0726 0.299824C12.9059 0.132631 12.714 0.0495605 12.497 0.0495605C12.28 0.0495605 12.0878 0.132894 11.921 0.299824L0.250526 11.9704C0.0833333 12.1374 0 12.3292 0 12.5468C0 12.7632 0.0835965 12.9553 0.250526 13.1223L1.50246 14.3746Z" fill="white"/>
<path d="M13.0726 9.91703C12.9059 9.74984 12.714 9.6665 12.497 9.6665C12.28 9.6665 12.0878 9.7501 11.921 9.91703L0.250526 21.5876C0.0833333 21.7546 0 21.9466 0 22.164C0 22.3808 0.0835965 22.5728 0.250526 22.7397L1.50246 23.992C1.66939 24.159 1.86149 24.2419 2.07851 24.2419C2.29553 24.2419 2.48763 24.1584 2.65456 23.992L12.497 14.1491L22.3398 23.992C22.5067 24.159 22.6989 24.2422 22.9155 24.2422C23.1329 24.2422 23.325 24.159 23.4918 23.992L24.7439 22.7397C24.9108 22.5728 24.9937 22.3807 24.9937 22.164C24.9937 21.9466 24.9103 21.7546 24.7439 21.5876L13.0726 9.91703Z" fill="white"/>
</g>
</svg>
