<svg width="16" height="16" viewBox="0 0 16 16" fill="none" xmlns="http://www.w3.org/2000/svg">
<path fill-rule="evenodd" clip-rule="evenodd" d="M8 0C3.58177 0 0 3.58177 0 8C0 12.4182 3.58177 16 8 16C12.4182 16 16 12.4182 16 8C15.9951 3.58385 12.4161 0.00494793 8 0ZM14.9189 10.8026L12.6438 11.1952C12.9042 10.2401 13.0448 9.25638 13.0624 8.26667H15.46C15.4299 9.13724 15.2467 9.9957 14.9189 10.8026ZM2.93763 8.26667H0.539974C0.570052 9.13724 0.753255 9.9957 1.08112 10.8026L3.35625 11.1952C3.09583 10.2401 2.95521 9.25638 2.93763 8.26667ZM1.08112 5.1974L3.35625 4.80482C3.09583 5.7599 2.95521 6.74362 2.93763 7.73333H0.539974C0.570052 6.86276 0.753255 6.0043 1.08112 5.1974ZM11.1254 4.54271C10.1807 4.38112 9.22487 4.29388 8.26667 4.28164V7.73333H12.5293C12.5115 6.70768 12.3559 5.68919 12.0667 4.70508L11.1254 4.54271ZM11.2163 4.01706C10.2417 3.85052 9.25534 3.76055 8.26667 3.74831V0.548307C9.79544 0.695182 11.1234 2.09492 11.876 4.13203L11.2163 4.01706ZM4.78398 4.01706C5.75859 3.85052 6.74466 3.76055 7.73333 3.74831V0.547135C6.20456 0.693359 4.87656 2.09362 4.12396 4.13125L4.78398 4.01706ZM4.87487 4.54271C5.8194 4.38112 6.77513 4.29388 7.73333 4.28164V7.73333H3.4707C3.48854 6.70768 3.64414 5.68919 3.93333 4.70508L4.87487 4.54271ZM7.73333 8.26667H3.4707C3.48854 9.29232 3.64414 10.3108 3.93333 11.2949L4.87461 11.4573C5.81927 11.6189 6.77513 11.7061 7.73333 11.7184V8.26667ZM4.78372 11.9829C5.75833 12.1497 6.74453 12.2401 7.73333 12.2531V15.4531C6.20456 15.3061 4.87656 13.9064 4.12396 11.8693L4.78372 11.9829ZM11.216 11.9829C10.2414 12.1497 9.25534 12.2401 8.26667 12.2531V15.4529C9.79544 15.3066 11.1234 13.9064 11.876 11.8687L11.216 11.9829ZM11.1251 11.4573C10.1806 11.6189 9.22487 11.7061 8.26667 11.7184V8.26667H12.5293C12.5115 9.29232 12.3559 10.3108 12.0667 11.2949L11.1251 11.4573ZM12.6438 4.80482C12.9042 5.7599 13.0448 6.74362 13.0624 7.73333H15.46C15.4299 6.86276 15.2467 6.0043 14.9189 5.1974L12.6438 4.80482ZM14.6491 4.60964L12.4682 4.23333C12.0762 2.9543 11.3427 1.80638 10.3466 0.913281C12.2092 1.5349 13.7539 2.86185 14.6491 4.60964ZM3.53177 4.23333C3.92383 2.9543 4.65729 1.80638 5.65339 0.913281C3.79076 1.5349 2.24609 2.86185 1.35091 4.60964L3.53177 4.23333ZM1.35091 11.3904L3.53177 11.7667C3.92383 13.0457 4.65729 14.1936 5.65339 15.0867C3.79076 14.4651 2.24609 13.1382 1.35091 11.3904ZM12.4682 11.7667C12.0762 13.0457 11.3427 14.1936 10.3466 15.0867C12.2092 14.4651 13.7539 13.1382 14.6491 11.3904L12.4682 11.7667Z" fill="white"/>
</svg>
