<svg xmlns="http://www.w3.org/2000/svg" viewBox="0 0 39.56 39.56"><defs><style>.cls-1{opacity:0.7;}.cls-2{fill:none;stroke:#fff;stroke-width:1.5px;}.cls-2,.cls-4{stroke-miterlimit:10;}.cls-3,.cls-4{fill:#fff;}.cls-4{stroke:#222221;}</style></defs><title>Asset 6</title><g id="Layer_2" data-name="Layer 2"><g id="Capa_1" data-name="Capa 1"><g class="cls-1"><path class="cls-2" d="M19.78,38.81h0a19,19,0,0,1-19-19h0a19,19,0,0,1,19-19h0a19,19,0,0,1,19,19h0A19,19,0,0,1,19.78,38.81Z"/><path class="cls-3" d="M34.37,12.4a3.82,3.82,0,0,0-2.69-2.71c-2.37-.64-11.9-.64-11.9-.64s-9.53,0-11.9.64A3.82,3.82,0,0,0,5.19,12.4a39.94,39.94,0,0,0-.64,7.38,39.94,39.94,0,0,0,.64,7.38,3.82,3.82,0,0,0,2.69,2.71c2.37.64,11.9.64,11.9.64s9.53,0,11.9-.64a3.82,3.82,0,0,0,2.69-2.71A39.94,39.94,0,0,0,35,19.78,39.94,39.94,0,0,0,34.37,12.4Z"/><polygon class="cls-4" points="16.66 24.31 16.66 15.25 24.63 19.78 16.66 24.31"/></g></g></g></svg>