<svg width="40" height="40" viewBox="0 0 40 40" fill="none" xmlns="http://www.w3.org/2000/svg">
<g clip-path="url(#clip0_27_14)">
<g opacity="0.7">
<path opacity="0.7" d="M19.7798 38.8101C14.7407 38.8101 9.90795 36.8083 6.34476 33.2451C2.78156 29.6819 0.779785 24.8492 0.779785 19.8101V19.8101C0.779785 14.7709 2.78156 9.93822 6.34476 6.37503C9.90795 2.81184 14.7407 0.810059 19.7798 0.810059V0.810059C24.8189 0.810059 29.6516 2.81184 33.2148 6.37503C36.778 9.93822 38.7798 14.7709 38.7798 19.8101V19.8101C38.7798 24.8492 36.778 29.6819 33.2148 33.2451C29.6516 36.8083 24.8189 38.8101 19.7798 38.8101V38.8101Z" stroke="white" stroke-width="1.5" stroke-miterlimit="10"/>
<path opacity="0.7" d="M34.3696 12.4C34.1984 11.7521 33.8597 11.1605 33.3875 10.6848C32.9154 10.2091 32.3263 9.86607 31.6796 9.69005C29.3096 9.05005 19.7796 9.05005 19.7796 9.05005C19.7796 9.05005 10.2496 9.05005 7.87964 9.69005C7.23293 9.86607 6.64391 10.2091 6.17174 10.6848C5.69957 11.1605 5.36086 11.7521 5.18964 12.4C4.74814 14.8349 4.53389 17.3055 4.54964 19.78C4.53389 22.2546 4.74814 24.7252 5.18964 27.16C5.36086 27.808 5.69957 28.3996 6.17174 28.8753C6.64391 29.3509 7.23293 29.694 7.87964 29.87C10.2496 30.51 19.7796 30.51 19.7796 30.51C19.7796 30.51 29.3096 30.51 31.6796 29.87C32.3263 29.694 32.9154 29.3509 33.3875 28.8753C33.8597 28.3996 34.1984 27.808 34.3696 27.16C34.8078 24.7249 35.0187 22.2543 34.9996 19.78C35.0187 17.3058 34.8078 14.8352 34.3696 12.4Z" fill="#FF0000"/>
<path opacity="0.7" d="M16.6597 24.31V15.25L24.6297 19.78L16.6597 24.31Z" fill="white"/>
</g>
</g>
<defs>
<clipPath id="clip0_27_14">
<rect width="39.56" height="39.56" fill="white"/>
</clipPath>
</defs>
</svg>
