<?xml version="1.0" encoding="UTF-8"?>
<svg width="42px" height="42px" viewBox="0 0 42 42" version="1.1" xmlns="http://www.w3.org/2000/svg" xmlns:xlink="http://www.w3.org/1999/xlink">
    <!-- Generator: Sketch 54.1 (76490) - https://sketchapp.com -->
    <title>bitcoin-up copy 2</title>
    <desc>Created with Sketch.</desc>
    <g id="Page-1" stroke="none" stroke-width="1" fill="none" fill-rule="evenodd">
        <g id="bitcoin-up-copy-2" transform="translate(21.000000, 21.000000) scale(-1, -1) rotate(-270.000000) translate(-21.000000, -21.000000) translate(1.000000, 1.000000)" fill-rule="nonzero">
            <path d="M19.9617699,0 C31.0031858,0 39.9235398,8.91020649 39.9235398,19.9617699 C39.9235398,31.0133333 31.0133333,39.9235398 19.9617699,39.9235398 C8.91020649,39.9235398 0,31.0133333 0,19.9617699 C0,8.91020649 8.92047198,0 19.9617699,0 Z" id="Shape" stroke="#FFFFFF"></path>
            <path d="M29.6737463,22.620649 L21.0273746,13.9741593 C20.499705,13.4464897 19.6979351,13.4464897 19.160118,13.9741593 L10.3818289,22.7524484 C9.85415929,23.280118 9.85415929,24.0818879 10.3818289,24.619705 C10.6456637,24.8835398 10.9094985,25.0155752 11.3155162,25.0155752 C11.579351,25.0155752 11.9853687,24.8836578 12.3810029,24.4879056 L20.0936873,16.7752212 L27.8063717,24.4879056 C28.3340413,25.0155752 29.1358112,25.0155752 29.6736283,24.4879056 C30.2014159,23.960354 30.2014159,23.1585841 29.6737463,22.620649 Z" id="Path" fill="#FFFFFF"></path>
        </g>
    </g>
</svg>