<svg width="30" height="30" viewBox="0 0 30 30" fill="none" xmlns="http://www.w3.org/2000/svg">
<path fill-rule="evenodd" clip-rule="evenodd" d="M3.75 0H26.25C27.2852 0 28.1689 0.366206 28.9014 1.09863C29.6338 1.83106 30 2.71484 30 3.75V26.25C30 27.2852 29.6338 28.1689 28.9014 28.9014C28.1689 29.6338 27.2852 30 26.25 30H3.75C2.71484 30 1.83106 29.6338 1.09863 28.9014C0.366205 28.1689 0 27.2852 0 26.25V3.75C0 2.71484 0.366205 1.83106 1.09863 1.09863C1.83106 0.366206 2.71484 0 3.75 0ZM1.875 26.25C1.875 26.7578 2.06055 27.1973 2.43164 27.5684C2.80273 27.9395 3.24219 28.125 3.75 28.125H26.25C26.7578 28.125 27.1973 27.9395 27.5684 27.5684C27.9395 27.1973 28.125 26.7578 28.125 26.25V3.75C28.125 3.24219 27.9395 2.80273 27.5684 2.43164C27.1973 2.06055 26.7578 1.875 26.25 1.875H3.75C3.24219 1.875 2.80273 2.06055 2.43164 2.43164C2.06055 2.80273 1.875 3.24219 1.875 3.75V26.25ZM9.375 14.0625H19.3066L15.4395 10.1953C15.2441 10.0195 15.1465 9.79981 15.1465 9.53613C15.1465 9.27246 15.2441 9.05274 15.4395 8.87696C15.6152 8.68164 15.835 8.58398 16.0986 8.58398C16.3623 8.58398 16.582 8.68164 16.7578 8.87696L22.0605 14.1797C22.1777 14.2969 22.2559 14.4287 22.2949 14.5752C22.334 14.7217 22.334 14.8633 22.2949 15C22.334 15.1367 22.334 15.2783 22.2949 15.4248C22.2559 15.5713 22.1777 15.7031 22.0605 15.8203L16.7578 21.123C16.582 21.3184 16.3623 21.416 16.0986 21.416C15.835 21.416 15.6152 21.3184 15.4395 21.123C15.2441 20.9473 15.1465 20.7275 15.1465 20.4639C15.1465 20.2002 15.2441 19.9805 15.4395 19.8047L19.3066 15.9375H9.375C9.12109 15.9375 8.90137 15.8447 8.71582 15.6592C8.53027 15.4736 8.4375 15.2539 8.4375 15C8.4375 14.7461 8.53027 14.5264 8.71582 14.3408C8.90137 14.1553 9.12109 14.0625 9.375 14.0625Z" fill="white"/>
</svg>
