<svg width="30" height="30" viewBox="0 0 30 30" fill="none" xmlns="http://www.w3.org/2000/svg">
<path opacity="0.7" fill-rule="evenodd" clip-rule="evenodd" d="M26.25 0H3.75C2.71484 0 1.83106 0.366206 1.09863 1.09863C0.366207 1.83106 0 2.71484 0 3.75V26.25C0 27.2852 0.366207 28.1689 1.09863 28.9014C1.83106 29.6338 2.71484 30 3.75 30H26.25C27.2852 30 28.1689 29.6338 28.9014 28.9014C29.6338 28.1689 30 27.2852 30 26.25V3.75C30 2.71484 29.6338 1.83106 28.9014 1.09863C28.1689 0.366206 27.2852 0 26.25 0ZM28.125 26.25C28.125 26.7578 27.9395 27.1973 27.5684 27.5684C27.1973 27.9395 26.7578 28.125 26.25 28.125H3.75C3.24219 28.125 2.80274 27.9395 2.43164 27.5684C2.06055 27.1973 1.875 26.7578 1.875 26.25V3.75C1.875 3.24219 2.06055 2.80273 2.43164 2.43164C2.80274 2.06055 3.24219 1.875 3.75 1.875H26.25C26.7578 1.875 27.1973 2.06055 27.5684 2.43164C27.9395 2.80273 28.125 3.24219 28.125 3.75V26.25ZM20.625 14.0625H10.6934L14.5605 10.1953C14.7559 10.0195 14.8535 9.79981 14.8535 9.53613C14.8535 9.27246 14.7559 9.05274 14.5605 8.87696C14.3848 8.68164 14.165 8.58398 13.9014 8.58398C13.6377 8.58398 13.418 8.68164 13.2422 8.87696L7.93946 14.1797C7.82226 14.2969 7.74414 14.4287 7.70508 14.5752C7.66602 14.7217 7.66602 14.8633 7.70508 15C7.66602 15.1367 7.66602 15.2783 7.70508 15.4248C7.74414 15.5713 7.82226 15.7031 7.93946 15.8203L13.2422 21.123C13.418 21.3184 13.6377 21.416 13.9014 21.416C14.165 21.416 14.3848 21.3184 14.5605 21.123C14.7559 20.9473 14.8535 20.7275 14.8535 20.4639C14.8535 20.2002 14.7559 19.9805 14.5605 19.8047L10.6934 15.9375H20.625C20.8789 15.9375 21.0986 15.8447 21.2842 15.6592C21.4697 15.4736 21.5625 15.2539 21.5625 15C21.5625 14.7461 21.4697 14.5264 21.2842 14.3408C21.0986 14.1553 20.8789 14.0625 20.625 14.0625Z" fill="white"/>
</svg>
