<svg width="98" height="98" viewBox="0 0 98 98" fill="none" xmlns="http://www.w3.org/2000/svg">
<g filter="url(#filter0_d)">
<circle cx="49" cy="43" r="24" fill="white"/>
</g>
<path d="M49.0009 29C49.0009 29 49.0009 29 49.0009 29C48.1489 29 47.7812 29.0202 47.1108 29.1037C44.2865 29.4557 41.6631 30.5726 39.5041 32.3422C37.197 34.2331 35.5611 36.7915 34.8657 39.5958C34.6064 40.6414 34.4902 41.6164 34.4902 42.7461C34.4902 43.4303 34.5132 43.8144 34.5911 44.4302C34.9668 47.4034 36.3846 50.182 38.631 52.3481L38.6892 52.4042C38.9242 52.6308 39.0576 52.9427 39.0591 53.2692L39.0775 57.4243C39.0817 58.3611 40.1034 58.9376 40.9073 58.4568L44.8281 56.1119C44.9751 56.0241 45.142 55.9917 45.308 56.0337C46.0311 56.216 47.0646 56.3817 47.9814 56.4619C48.3876 56.4975 49.6381 56.497 50.0893 56.4614C52.801 56.2463 55.1974 55.4292 57.3753 53.9766C58.6424 53.1314 59.9109 51.9343 60.8262 50.7195C62.368 48.6739 63.2689 46.309 63.4839 43.7429C63.5196 43.3169 63.5198 42.1793 63.4842 41.7496C63.3373 39.9755 62.8982 38.4088 62.1066 36.835C61.2368 35.1056 60.0181 33.5882 58.4978 32.3423C56.3388 30.5727 53.7154 29.4557 50.8911 29.1038C50.2207 29.0202 49.853 29.0001 49.0009 29.0001C49.0009 29.0001 49.0009 29 49.0009 29Z" fill="url(#paint0_linear)"/>
<path d="M57.5817 38.522C57.468 38.5277 57.3515 38.5645 57.2412 38.6413L52.3844 42.02C52.2677 42.1012 52.1286 42.1384 51.9892 42.1333V42.1328C51.8523 42.1277 51.7152 42.082 51.5994 41.9953L47.4074 38.8551L47.4064 38.8566C47.1526 38.665 46.8497 38.5526 46.5373 38.534C46.2032 38.5141 45.8756 38.6026 45.6032 38.7862C45.4648 38.8805 45.3436 38.9975 45.2447 39.1326L45.2432 39.1315L39.8212 46.7149C39.4091 47.2913 40.1717 48.0128 40.7603 47.6033L45.6171 44.2247C45.7338 44.1435 45.8729 44.1063 46.0123 44.1113V44.1118C46.1492 44.1169 46.2863 44.1627 46.4021 44.2494L50.5941 47.3895L50.5951 47.3881C50.8489 47.5796 51.1518 47.6921 51.4642 47.7107C51.7983 47.7306 52.1259 47.6421 52.3983 47.4584C52.5367 47.3642 52.6579 47.2472 52.7568 47.1121L52.7583 47.1131L58.1803 39.5298C58.5151 39.0614 58.0745 38.4975 57.5817 38.522L57.5817 38.522Z" fill="white"/>
<defs>
<filter id="filter0_d" x="0" y="0" width="98" height="98" filterUnits="userSpaceOnUse" color-interpolation-filters="sRGB">
<feFlood flood-opacity="0" result="BackgroundImageFix"/>
<feColorMatrix in="SourceAlpha" type="matrix" values="0 0 0 0 0 0 0 0 0 0 0 0 0 0 0 0 0 0 127 0"/>
<feOffset dy="6"/>
<feGaussianBlur stdDeviation="12.5"/>
<feColorMatrix type="matrix" values="0 0 0 0 0 0 0 0 0 0 0 0 0 0 0 0 0 0 0.25 0"/>
<feBlend mode="normal" in2="BackgroundImageFix" result="effect1_dropShadow"/>
<feBlend mode="normal" in="SourceGraphic" in2="effect1_dropShadow" result="shape"/>
</filter>
<linearGradient id="paint0_linear" x1="41.1255" y1="55.9759" x2="41.1255" y2="31.1738" gradientUnits="userSpaceOnUse">
<stop stop-color="#006BFF"/>
<stop offset="1" stop-color="#00B2FF"/>
</linearGradient>
</defs>
</svg>
