<svg width="15" height="15" viewBox="0 0 15 15" fill="none" xmlns="http://www.w3.org/2000/svg">
<path d="M7.5 1L7.50059 0.5H7.5V1ZM14 7.5H14.5V7.49941L14 7.5ZM7.5 0.5C3.63396 0.5 0.5 3.63396 0.5 7.5H1.5C1.5 4.18625 4.18625 1.5 7.5 1.5V0.5ZM14.5 7.49941C14.4954 3.63562 11.3644 0.504593 7.50059 0.5L7.49941 1.5C10.8118 1.50394 13.4961 4.18816 13.5 7.50059L14.5 7.49941ZM7.5 14.5C11.366 14.5 14.5 11.366 14.5 7.5H13.5C13.5 10.8138 10.8138 13.5 7.5 13.5V14.5ZM0.5 7.5C0.5 11.366 3.63396 14.5 7.5 14.5V13.5C4.18625 13.5 1.5 10.8138 1.5 7.5H0.5Z" fill="white"/>
<path d="M10.6598 4.34019C10.5011 4.1816 10.2439 4.1816 10.0854 4.34019L7.49997 6.92557L4.91459 4.34019C4.75868 4.17882 4.5015 4.17436 4.34013 4.33027C4.17876 4.48608 4.17429 4.74326 4.33021 4.90463C4.33348 4.90801 4.33675 4.91138 4.34013 4.91465L6.92551 7.50003L4.34013 10.0854C4.17876 10.2412 4.17429 10.4984 4.33021 10.6599C4.48602 10.8212 4.7432 10.8257 4.90457 10.6698C4.90794 10.6665 4.91132 10.6632 4.91459 10.6599L7.49997 8.07449L10.0854 10.6599C10.2467 10.8157 10.5039 10.8112 10.6597 10.6499C10.8118 10.4925 10.8118 10.2428 10.6597 10.0854L8.07443 7.50003L10.6598 4.91465C10.8184 4.75606 10.8184 4.49888 10.6598 4.34019Z" fill="white"/>
</svg>
