<svg width="15" height="17" viewBox="0 0 15 17" fill="none" xmlns="http://www.w3.org/2000/svg">
<path opacity="0.5" fill-rule="evenodd" clip-rule="evenodd" d="M1.0989 15.1181H3.57143V12.6456H1.0989V15.1181ZM4.12088 15.1181H6.86813V12.6456H4.12088V15.1181ZM1.0989 12.0961H3.57143V9.34888H1.0989V12.0961ZM4.12088 12.0961H6.86813V9.34888H4.12088V12.0961ZM1.0989 8.79943H3.57143V6.3269H1.0989V8.79943ZM7.41758 15.1181H10.1648V12.6456H7.41758V15.1181ZM4.12088 8.79943H6.86813V6.3269H4.12088V8.79943ZM10.7143 15.1181H13.1868V12.6456H10.7143V15.1181ZM7.41758 12.0961H10.1648V9.34888H7.41758V12.0961ZM4.3956 4.67855V2.20602C4.3956 2.13162 4.36842 2.06723 4.31404 2.01286C4.25967 1.95848 4.19528 1.9313 4.12088 1.9313H3.57143C3.49702 1.9313 3.43263 1.95848 3.37826 2.01286C3.32389 2.06723 3.2967 2.13162 3.2967 2.20602V4.67855C3.2967 4.75296 3.32389 4.81734 3.37826 4.87172C3.43263 4.92609 3.49702 4.95328 3.57143 4.95328H4.12088C4.19528 4.95328 4.25967 4.92609 4.31404 4.87172C4.36842 4.81734 4.3956 4.75296 4.3956 4.67855ZM10.7143 12.0961H13.1868V9.34888H10.7143V12.0961ZM7.41758 8.79943H10.1648V6.3269H7.41758V8.79943ZM10.7143 8.79943H13.1868V6.3269H10.7143V8.79943ZM10.989 4.67855V2.20602C10.989 2.13162 10.9618 2.06723 10.9074 2.01286C10.8531 1.95848 10.7887 1.9313 10.7143 1.9313H10.1648C10.0904 1.9313 10.026 1.95848 9.97167 2.01286C9.91729 2.06723 9.89011 2.13162 9.89011 2.20602V4.67855C9.89011 4.75296 9.91729 4.81734 9.97167 4.87172C10.026 4.92609 10.0904 4.95328 10.1648 4.95328H10.7143C10.7887 4.95328 10.8531 4.92609 10.9074 4.87172C10.9618 4.81734 10.989 4.75296 10.989 4.67855ZM14.2857 4.1291V15.1181C14.2857 15.4157 14.177 15.6733 13.9595 15.8908C13.742 16.1083 13.4844 16.217 13.1868 16.217H1.0989C0.80128 16.217 0.543728 16.1083 0.326236 15.8908C0.108744 15.6733 0 15.4157 0 15.1181V4.1291C0 3.83148 0.108744 3.57393 0.326236 3.35644C0.543728 3.13894 0.80128 3.0302 1.0989 3.0302H2.1978V2.20602C2.1978 1.82827 2.3323 1.5049 2.60131 1.2359C2.87031 0.966897 3.19368 0.832397 3.57143 0.832397H4.12088C4.49863 0.832397 4.822 0.966897 5.091 1.2359C5.36 1.5049 5.4945 1.82827 5.4945 2.20602V3.0302H8.79121V2.20602C8.79121 1.82827 8.92571 1.5049 9.19471 1.2359C9.46371 0.966897 9.78708 0.832397 10.1648 0.832397H10.7143C11.092 0.832397 11.4154 0.966897 11.6844 1.2359C11.9534 1.5049 12.0879 1.82827 12.0879 2.20602V3.0302H13.1868C13.4844 3.0302 13.742 3.13894 13.9595 3.35644C14.177 3.57393 14.2857 3.83148 14.2857 4.1291Z" fill="black"/>
</svg>
