<?xml version="1.0" encoding="UTF-8"?>
<svg width="100px" height="100px" viewBox="0 0 100 100" version="1.1" xmlns="http://www.w3.org/2000/svg" xmlns:xlink="http://www.w3.org/1999/xlink">
    <!-- Generator: Sketch 54.1 (76490) - https://sketchapp.com -->
    <title>Fill 1</title>
    <desc>Created with Sketch.</desc>
    <g id="Page-1" stroke="none" stroke-width="1" fill="none" fill-rule="evenodd" opacity="0.699999988">
        <path d="M50,90.1408451 C60.9546667,90.1408451 70.383369,86.1893979 78.2863925,78.2863925 C86.1894009,70.383369 90.1408451,60.9546667 90.1408451,50 C90.1408451,39.0453333 86.1894009,29.616631 78.2863925,21.7136075 C70.383369,13.8105991 60.9546667,9.85915493 50,9.85915493 C39.0453333,9.85915493 29.616631,13.8105991 21.7136075,21.7136075 C13.8106021,29.616631 9.85915493,39.0453333 9.85915493,50 C9.85915493,60.9546667 13.8106021,70.383369 21.7136075,78.2863925 C29.616631,86.1893979 39.0453333,90.1408451 50,90.1408451 Z M50,0 C63.7715831,0 75.5476883,4.89041127 85.328646,14.671354 C95.1095887,24.4523117 100,36.2284169 100,50 C100,63.7715831 95.1095887,75.5476883 85.328646,85.3286385 C75.5476883,95.1095947 63.7715831,100 50,100 C36.2284169,100 24.4523117,95.1095947 14.6713615,85.3286385 C4.89040526,75.5476883 0,63.7715831 0,50 C0,36.2284169 4.89040526,24.4523117 14.6713615,14.671354 C24.4523117,4.89041127 36.2284169,0 50,0 Z M39.9061033,72.5352113 L39.9061033,27.4647887 L69.9530516,50 L39.9061033,72.5352113 Z" id="Fill-1" fill="#FFFFFF"></path>
    </g>
</svg>