<svg width="13" height="13" viewBox="0 0 13 13" fill="none" xmlns="http://www.w3.org/2000/svg">
<path fill-rule="evenodd" clip-rule="evenodd" d="M12.7969 0.0871692C12.9565 0.203175 13.0218 0.357847 12.9927 0.55119L11.1358 11.6877C11.1117 11.8279 11.0343 11.9366 10.9037 12.014C10.836 12.0526 10.7611 12.072 10.6789 12.072C10.6257 12.072 10.5677 12.0599 10.5048 12.0357L6.6822 10.4769L4.52065 12.8477C4.43361 12.9492 4.31997 13 4.17974 13C4.11204 13 4.05643 12.9903 4.01291 12.971C3.92103 12.9372 3.84849 12.8804 3.7953 12.8006C3.74211 12.7209 3.71551 12.6327 3.71551 12.536V9.25883L0.291858 7.85952C0.112937 7.79185 0.016225 7.65893 0.00171797 7.46075C-0.0127891 7.27224 0.0645808 7.12965 0.23383 7.03298L12.3037 0.0726695C12.4729 -0.0288367 12.6373 -0.0240035 12.7969 0.0871692ZM10.3162 10.9554L11.9192 1.36323L1.5177 7.35925L3.95488 8.35254L10.2147 3.71958L6.74748 9.49809L10.3162 10.9554Z" fill="white"/>
</svg>
