<svg width="40" height="40" viewBox="0 0 40 40" fill="none" xmlns="http://www.w3.org/2000/svg">
<path fill-rule="evenodd" clip-rule="evenodd" d="M20 39C30.4934 39 39 30.4934 39 20C39 9.50659 30.4934 1 20 1C9.50659 1 1 9.50659 1 20C1 30.4934 9.50659 39 20 39Z" stroke="#0755B5" stroke-width="1.5"/>
<path fill-rule="evenodd" clip-rule="evenodd" d="M26.062 12.7119C24.4113 11.0438 22.4118 10.2097 20.0635 10.2097C17.7151 10.2097 15.7071 11.0438 14.0395 12.7119C12.3718 14.38 11.538 16.3956 11.538 18.7588C11.538 21.1219 12.3718 23.1376 14.0395 24.8057L20.038 30.8526L26.062 24.8057C27.7126 23.1376 28.538 21.1219 28.538 18.7588C28.538 16.3956 27.7126 14.38 26.062 12.7119ZM24.0567 18.9684C24.0567 21.191 22.2922 22.9927 20.1156 22.9927C17.939 22.9927 16.1745 21.191 16.1745 18.9684C16.1745 16.7459 17.939 14.9441 20.1156 14.9441C22.2922 14.9441 24.0567 16.7459 24.0567 18.9684Z" fill="#0755B5"/>
</svg>
