<svg width="40" height="40" viewBox="0 0 40 40" fill="none" xmlns="http://www.w3.org/2000/svg">
<path fill-rule="evenodd" clip-rule="evenodd" d="M20 39C30.4934 39 39 30.4934 39 20C39 9.50659 30.4934 1 20 1C9.50659 1 1 9.50659 1 20C1 30.4934 9.50659 39 20 39Z" stroke="#0755B5" stroke-width="1.5"/>
<path fill-rule="evenodd" clip-rule="evenodd" d="M24.502 22.2607C24.502 22.7088 24.5684 23.0278 24.7012 23.2179C24.834 23.408 25.0598 23.5031 25.3785 23.5031C26.0956 23.5031 26.6633 23.0652 27.0817 22.1894C27.5 21.3136 27.7092 20.1086 27.7092 18.5743C27.7092 17.3931 27.5133 16.368 27.1215 15.499C26.7297 14.63 26.1919 13.907 25.508 13.3299C24.824 12.7529 24.0239 12.3218 23.1076 12.0367C22.1912 11.7515 21.2085 11.609 20.1594 11.609C19.0837 11.609 18.0511 11.7923 17.0618 12.1589C16.0724 12.5255 15.1992 13.0686 14.4422 13.7882C13.6853 14.5078 13.081 15.3971 12.6295 16.4562C12.178 17.5153 11.9522 18.7441 11.9522 20.1426C11.9522 21.4732 12.158 22.651 12.5697 23.6762C12.9814 24.7013 13.5657 25.5635 14.3227 26.2627C15.0797 26.962 15.9927 27.4881 17.0618 27.8411C18.1308 28.1942 19.3227 28.3707 20.6375 28.3707C21.5272 28.3707 22.324 28.313 23.0279 28.1976C23.7317 28.0821 24.5418 27.8683 25.4582 27.556L25.8566 29.2261C24.9402 29.5248 24.0239 29.7284 23.1076 29.8371C22.1912 29.9457 21.3546 30 20.5976 30C18.8845 30 17.3672 29.7658 16.0458 29.2974C14.7244 28.8289 13.6155 28.167 12.7191 27.3116C11.8227 26.4562 11.1454 25.4209 10.6873 24.2057C10.2291 22.9905 10 21.6361 10 20.1426C10 18.6354 10.2556 17.2607 10.7669 16.0183C11.2782 14.776 11.9854 13.7067 12.8884 12.8106C13.7915 11.9145 14.8672 11.222 16.1155 10.7332C17.3639 10.2444 18.7251 10 20.1992 10C21.7264 10 23.0777 10.2206 24.253 10.6619C25.4283 11.1032 26.411 11.7006 27.2012 12.4542C27.9914 13.2077 28.5857 14.0937 28.9841 15.112C29.3825 16.1304 29.5817 17.2166 29.5817 18.3707C29.5817 19.3483 29.502 20.2546 29.3426 21.0896C29.1833 21.9246 28.911 22.651 28.5259 23.2688C28.1408 23.8866 27.6295 24.372 26.992 24.725C26.3546 25.0781 25.5644 25.2546 24.6215 25.2546C23.7583 25.2546 23.0644 25.0713 22.5398 24.7047C22.0153 24.3381 21.7131 23.7678 21.6335 22.9939C21.421 23.8629 21.0325 24.4569 20.4681 24.776C19.9037 25.095 19.2231 25.2546 18.4263 25.2546C17.8951 25.2546 17.3938 25.1494 16.9223 24.9389C16.4509 24.7284 16.0359 24.4128 15.6773 23.9919C15.3187 23.5709 15.0332 23.0448 14.8207 22.4134C14.6082 21.7821 14.502 21.0387 14.502 20.1833C14.502 19.3415 14.5983 18.5811 14.7908 17.9022C14.9834 17.2234 15.2656 16.6463 15.6375 16.1711C16.0093 15.6959 16.4675 15.3293 17.012 15.0713C17.5564 14.8133 18.1806 14.6843 18.8845 14.6843C19.6414 14.6843 20.2523 14.8235 20.7171 15.1018C21.1819 15.3802 21.5206 15.757 21.7331 16.2322L22.4502 14.9084H24.502V22.2607ZM21.494 18.9613C21.494 18.2824 21.2915 17.7868 20.8865 17.4745C20.4814 17.1623 20.073 17.0061 19.6614 17.0061C19.2098 17.0061 18.7782 17.2234 18.3665 17.6578C17.9548 18.0923 17.749 18.8595 17.749 19.9593C17.749 20.8418 17.9216 21.5173 18.2669 21.9857C18.6122 22.4542 19.077 22.6884 19.6614 22.6884C20.0598 22.6884 20.4648 22.5424 20.8765 22.2505C21.2882 21.9586 21.494 21.446 21.494 20.7128V18.9613Z" fill="#0755B5"/>
</svg>
