<svg width="111" height="480" viewBox="0 0 111 480" fill="none" xmlns="http://www.w3.org/2000/svg">
<path opacity="0.05" d="M108.5 404.881L-7.75732 367.821V400.208L79.5767 422.525V423.17L-7.75732 445.567V479.164L108.5 442.103V404.881ZM108.5 331.389H-7.75732V360.957H108.5V331.389ZM-7.75732 318H108.5V270.547C108.5 235.5 86.8276 214.875 49.6865 214.875C12.626 214.875 -7.75732 235.5 -7.75732 270.547L-7.75732 318ZM16.0903 288.432V274.494C16.0903 255.803 27.9336 244.926 49.7671 244.926C72.9702 244.926 84.6523 255.239 84.6523 274.494V288.432H16.0903ZM84.6523 124.948V175.06H60.9658L60.9658 127.929H39.2129L39.2129 175.06H16.0903L16.0903 124.948H-7.75732L-7.75732 204.628H108.5V124.948H84.6523ZM-9.77148 58.304C-9.77148 93.5115 13.3511 115.748 50.4116 115.748C87.4722 115.748 110.514 93.5921 110.514 58.304C110.514 23.0965 87.4722 0.940735 50.4116 0.940735C13.3511 0.940735 -9.77148 23.0965 -9.77148 58.304ZM14.2373 58.304C14.2373 41.7879 28.2559 30.992 50.4116 30.992C72.4868 30.992 86.5054 41.7879 86.5054 58.304C86.5054 74.9007 72.4868 85.616 50.4116 85.616C28.2559 85.616 14.2373 74.8201 14.2373 58.304Z" fill="black"/>
</svg>
