<svg width="40" height="40" viewBox="0 0 40 40" fill="none" xmlns="http://www.w3.org/2000/svg">
<path fill-rule="evenodd" clip-rule="evenodd" d="M20 39C30.4934 39 39 30.4934 39 20C39 9.50659 30.4934 1 20 1C9.50659 1 1 9.50659 1 20C1 30.4934 9.50659 39 20 39Z" stroke="#0755B5" stroke-width="1.5"/>
<path fill-rule="evenodd" clip-rule="evenodd" d="M18.1125 21.1176C17.1901 20.1625 16.3987 19.2058 15.738 18.2475C15.0774 17.2893 14.9586 16.5983 15.3817 16.1746C16.008 15.5698 16.4647 14.9813 16.7518 14.409C17.0389 13.8367 16.6556 12.8641 15.602 11.491C14.533 10.1176 13.6126 9.70904 12.8409 10.2651C12.0692 10.8213 11.3781 11.3865 10.7677 11.9608C10.4232 12.2935 10.2442 12.8484 10.2307 13.6255C10.2171 14.4027 10.3975 15.3141 10.7718 16.3597C11.1461 17.4054 11.7264 18.5508 12.5129 19.7961C13.2993 21.0413 14.3125 22.3059 15.5524 23.5899C16.7923 24.8738 18.0209 25.9267 19.2381 26.7484C20.4552 27.5702 21.5798 28.1863 22.6117 28.5969C23.6437 29.0074 24.5444 29.2194 25.3138 29.2329C26.0833 29.2463 26.648 29.0868 27.0078 28.7544C27.6028 28.1798 28.1917 27.5166 28.7744 26.7648C29.3571 26.013 28.9809 25.0789 27.6457 23.9626C26.3102 22.8617 25.3515 22.4447 24.7696 22.7117C24.1876 22.9786 23.5836 23.4068 22.9576 23.9962C22.5192 24.4196 21.8326 24.2845 20.898 23.5908C19.9634 22.8972 19.0349 22.0728 18.1125 21.1176Z" fill="#0755B5"/>
</svg>
