<svg width="40" height="40" viewBox="0 0 40 40" fill="none" xmlns="http://www.w3.org/2000/svg">
<path fill-rule="evenodd" clip-rule="evenodd" d="M20 39C30.4934 39 39 30.4934 39 20C39 9.50659 30.4934 1 20 1C9.50659 1 1 9.50659 1 20C1 30.4934 9.50659 39 20 39Z" stroke="#0755B5" stroke-width="1.5"/>
<path fill-rule="evenodd" clip-rule="evenodd" d="M20 10C14.4772 10 10 14.4772 10 20C10 25.5228 14.4772 30 20 30C25.5228 30 30 25.5228 30 20C29.9938 14.4798 25.5202 10.0062 20 10ZM28.6486 23.5033L25.8047 23.994C26.1302 22.8001 26.306 21.5705 26.328 20.3333H29.325C29.2874 21.4215 29.0584 22.4946 28.6486 23.5033ZM13.672 20.3333H10.675C10.7126 21.4215 10.9416 22.4946 11.3514 23.5033L14.1953 23.994C13.8698 22.8001 13.694 21.5705 13.672 20.3333ZM11.3514 16.4967L14.1953 16.006C13.8698 17.1999 13.694 18.4295 13.672 19.6667H10.675C10.7126 18.5785 10.9416 17.5054 11.3514 16.4967ZM23.9067 15.6784C22.7259 15.4764 21.5311 15.3674 20.3333 15.3521V19.6667H25.6616C25.6393 18.3846 25.4448 17.1115 25.0833 15.8813L23.9067 15.6784ZM24.0203 15.0213C22.8021 14.8132 21.5692 14.7007 20.3333 14.6854V10.6854C22.2443 10.869 23.9043 12.6187 24.8451 15.165L24.0203 15.0213ZM15.98 15.0213C17.1982 14.8132 18.4308 14.7007 19.6667 14.6854V10.6839C17.7557 10.8667 16.0957 12.617 15.1549 15.1641L15.98 15.0213ZM16.0936 15.6784C17.2743 15.4764 18.4689 15.3674 19.6667 15.3521V19.6667H14.3384C14.3607 18.3846 14.5552 17.1115 14.9167 15.8813L16.0936 15.6784ZM19.6667 20.3333H14.3384C14.3607 21.6154 14.5552 22.8885 14.9167 24.1187L16.0933 24.3216C17.2741 24.5236 18.4689 24.6326 19.6667 24.6479V20.3333ZM15.9797 24.9787C17.1979 25.1872 18.4307 25.3001 19.6667 25.3164V29.3164C17.7557 29.1327 16.0957 27.383 15.1549 24.8366L15.9797 24.9787ZM24.02 24.9787C22.8018 25.1872 21.5692 25.3001 20.3333 25.3164V29.3161C22.2443 29.1333 23.9043 27.383 24.8451 24.8359L24.02 24.9787ZM23.9064 24.3216C22.7257 24.5236 21.5311 24.6326 20.3333 24.6479V20.3333H25.6616C25.6393 21.6154 25.4448 22.8885 25.0833 24.1187L23.9064 24.3216ZM25.8047 16.006C26.1302 17.1999 26.306 18.4295 26.328 19.6667H29.325C29.2874 18.5785 29.0584 17.5054 28.6486 16.4967L25.8047 16.006ZM28.3114 15.762L25.5853 15.2917C25.0952 13.6929 24.1784 12.258 22.9333 11.1416C25.2616 11.9186 27.1924 13.5773 28.3114 15.762ZM14.4147 15.2917C14.9048 13.6929 15.8216 12.258 17.0667 11.1416C14.7384 11.9186 12.8076 13.5773 11.6886 15.762L14.4147 15.2917ZM11.6886 24.238L14.4147 24.7083C14.9048 26.3071 15.8216 27.742 17.0667 28.8584C14.7384 28.0814 12.8076 26.4227 11.6886 24.238ZM25.5853 24.7083C25.0952 26.3071 24.1784 27.742 22.9333 28.8584C25.2616 28.0814 27.1924 26.4227 28.3114 24.238L25.5853 24.7083Z" fill="#0755B5"/>
</svg>
